{
    "asset" : {
        "generator" : "Khronos glTF Blender I/O v1.8.19",
        "version" : "2.0"
    },
    "scene" : 0,
    "scenes" : [
        {
            "name" : "Scene",
            "nodes" : [
                0,
                1,
                2,
                3,
                4,
                5,
                6,
                7,
                8
            ]
        }
    ],
    "nodes" : [
        {
            "mesh" : 0,
            "name" : "Cube.001",
            "rotation" : [
                -0.7071068286895752,
                -0.7071068286895752,
                0,
                -1.5454311608209537e-08
            ],
            "translation" : [
                0.2567252814769745,
                0.5322479605674744,
                0
            ]
        },
        {
            "mesh" : 1,
            "name" : "Curve",
            "rotation" : [
                0.5,
                0.5,
                -0.5,
                0.4999999701976776
            ],
            "scale" : [
                6.681931018829346,
                6.681931018829346,
                6.681931018829346
            ],
            "translation" : [
                0,
                0.06870950758457184,
                0.821175217628479
            ]
        },
        {
            "mesh" : 2,
            "name" : "Curve.001",
            "rotation" : [
                0.5,
                0.5,
                -0.5,
                0.4999999701976776
            ],
            "scale" : [
                11.355119705200195,
                11.355119705200195,
                11.355119705200195
            ],
            "translation" : [
                -0.7859141826629639,
                -0.8158976435661316,
                0.9387162923812866
            ]
        },
        {
            "mesh" : 3,
            "name" : "Curve.002",
            "rotation" : [
                0.5,
                0.5,
                -0.5,
                0.4999999701976776
            ],
            "scale" : [
                11.355119705200195,
                11.355119705200195,
                11.355119705200195
            ],
            "translation" : [
                -0.7859141826629639,
                -0.8158976435661316,
                0.9387162923812866
            ]
        },
        {
            "mesh" : 4,
            "name" : "Curve.003",
            "rotation" : [
                0.5,
                0.5,
                -0.5,
                0.4999999701976776
            ],
            "scale" : [
                11.355119705200195,
                11.355119705200195,
                11.355119705200195
            ],
            "translation" : [
                -0.7859141826629639,
                -0.8158976435661316,
                0.9387162923812866
            ]
        },
        {
            "mesh" : 5,
            "name" : "Curve.004",
            "rotation" : [
                0.5,
                0.5,
                -0.5,
                0.4999999701976776
            ],
            "scale" : [
                11.355119705200195,
                11.355119705200195,
                11.355119705200195
            ],
            "translation" : [
                -0.7859141826629639,
                -0.8158976435661316,
                0.9387162923812866
            ]
        },
        {
            "mesh" : 6,
            "name" : "Curve.005",
            "rotation" : [
                0.5,
                0.5,
                -0.5,
                0.4999999701976776
            ],
            "scale" : [
                11.355119705200195,
                11.355119705200195,
                11.355119705200195
            ],
            "translation" : [
                -0.7859141826629639,
                -0.8158976435661316,
                0.9387162923812866
            ]
        },
        {
            "mesh" : 7,
            "name" : "Curve.006",
            "rotation" : [
                0.5,
                0.5,
                -0.5,
                0.4999999701976776
            ],
            "scale" : [
                11.355119705200195,
                11.355119705200195,
                11.355119705200195
            ],
            "translation" : [
                -0.7859141826629639,
                -0.8158976435661316,
                0.9387162923812866
            ]
        },
        {
            "mesh" : 8,
            "name" : "Sphere",
            "scale" : [
                10.879748344421387,
                10.879748344421387,
                10.879748344421387
            ]
        }
    ],
    "materials" : [
        {
            "doubleSided" : true,
            "name" : "Material.003",
            "pbrMetallicRoughness" : {
                "baseColorFactor" : [
                    0.8000000715255737,
                    0.11402042210102081,
                    0.0030923851300030947,
                    1
                ],
                "metallicFactor" : 0,
                "roughnessFactor" : 0.5
            }
        },
        {
            "doubleSided" : true,
            "name" : "Material.001",
            "pbrMetallicRoughness" : {
                "metallicFactor" : 0,
                "roughnessFactor" : 0.5
            }
        },
        {
            "doubleSided" : true,
            "name" : "SVGMat.001",
            "pbrMetallicRoughness" : {
                "baseColorFactor" : [
                    1,
                    1,
                    1,
                    1
                ],
                "metallicFactor" : 0,
                "roughnessFactor" : 0.4000000059604645
            }
        },
        {
            "doubleSided" : true,
            "name" : "Material",
            "pbrMetallicRoughness" : {
                "baseColorFactor" : [
                    0.9999988079071045,
                    0.9999989867210388,
                    1,
                    1
                ],
                "metallicFactor" : 0,
                "roughnessFactor" : 0.5
            }
        }
    ],
    "meshes" : [
        {
            "name" : "Cube.001",
            "primitives" : [
                {
                    "attributes" : {
                        "POSITION" : 0,
                        "NORMAL" : 1,
                        "TEXCOORD_0" : 2
                    },
                    "indices" : 3,
                    "material" : 0
                }
            ]
        },
        {
            "name" : "Curve",
            "primitives" : [
                {
                    "attributes" : {
                        "POSITION" : 4,
                        "NORMAL" : 5,
                        "TEXCOORD_0" : 6
                    },
                    "indices" : 7,
                    "material" : 1
                }
            ]
        },
        {
            "name" : "Curve.007",
            "primitives" : [
                {
                    "attributes" : {
                        "POSITION" : 8,
                        "NORMAL" : 9,
                        "TEXCOORD_0" : 10
                    },
                    "indices" : 11,
                    "material" : 2
                }
            ]
        },
        {
            "name" : "Curve.008",
            "primitives" : [
                {
                    "attributes" : {
                        "POSITION" : 12,
                        "NORMAL" : 13,
                        "TEXCOORD_0" : 14
                    },
                    "indices" : 15,
                    "material" : 2
                }
            ]
        },
        {
            "name" : "Curve.009",
            "primitives" : [
                {
                    "attributes" : {
                        "POSITION" : 16,
                        "NORMAL" : 17,
                        "TEXCOORD_0" : 18
                    },
                    "indices" : 19,
                    "material" : 2
                }
            ]
        },
        {
            "name" : "Curve.010",
            "primitives" : [
                {
                    "attributes" : {
                        "POSITION" : 20,
                        "NORMAL" : 21,
                        "TEXCOORD_0" : 22
                    },
                    "indices" : 23,
                    "material" : 2
                }
            ]
        },
        {
            "name" : "Curve.011",
            "primitives" : [
                {
                    "attributes" : {
                        "POSITION" : 24,
                        "NORMAL" : 25,
                        "TEXCOORD_0" : 26
                    },
                    "indices" : 27,
                    "material" : 2
                }
            ]
        },
        {
            "name" : "Curve.012",
            "primitives" : [
                {
                    "attributes" : {
                        "POSITION" : 28,
                        "NORMAL" : 29,
                        "TEXCOORD_0" : 30
                    },
                    "indices" : 31,
                    "material" : 2
                }
            ]
        },
        {
            "name" : "Sphere",
            "primitives" : [
                {
                    "attributes" : {
                        "POSITION" : 32,
                        "NORMAL" : 33,
                        "TEXCOORD_0" : 34
                    },
                    "indices" : 35,
                    "material" : 3
                }
            ]
        }
    ],
    "accessors" : [
        {
            "bufferView" : 0,
            "componentType" : 5126,
            "count" : 192,
            "max" : [
                1,
                -0.3107544183731079,
                1
            ],
            "min" : [
                -1,
                -1,
                -1
            ],
            "type" : "VEC3"
        },
        {
            "bufferView" : 1,
            "componentType" : 5126,
            "count" : 192,
            "type" : "VEC3"
        },
        {
            "bufferView" : 2,
            "componentType" : 5126,
            "count" : 192,
            "type" : "VEC2"
        },
        {
            "bufferView" : 3,
            "componentType" : 5123,
            "count" : 372,
            "type" : "SCALAR"
        },
        {
            "bufferView" : 4,
            "componentType" : 5126,
            "count" : 44537,
            "max" : [
                0.24681320786476135,
                0.010000002570450306,
                -0.03755384683609009
            ],
            "min" : [
                0.007435092702507973,
                -0.010000002570450306,
                -0.11191900819540024
            ],
            "type" : "VEC3"
        },
        {
            "bufferView" : 5,
            "componentType" : 5126,
            "count" : 44537,
            "type" : "VEC3"
        },
        {
            "bufferView" : 6,
            "componentType" : 5126,
            "count" : 44537,
            "type" : "VEC2"
        },
        {
            "bufferView" : 7,
            "componentType" : 5123,
            "count" : 94848,
            "type" : "SCALAR"
        },
        {
            "bufferView" : 8,
            "componentType" : 5126,
            "count" : 548,
            "max" : [
                0.11790356785058975,
                0.004999999888241291,
                -0.05320138856768608
            ],
            "min" : [
                0.04554877430200577,
                -0.004999999888241291,
                -0.05786316841840744
            ],
            "type" : "VEC3"
        },
        {
            "bufferView" : 9,
            "componentType" : 5126,
            "count" : 548,
            "type" : "VEC3"
        },
        {
            "bufferView" : 10,
            "componentType" : 5126,
            "count" : 548,
            "type" : "VEC2"
        },
        {
            "bufferView" : 11,
            "componentType" : 5123,
            "count" : 996,
            "type" : "SCALAR"
        },
        {
            "bufferView" : 12,
            "componentType" : 5126,
            "count" : 1078,
            "max" : [
                0.06852225214242935,
                0.004999999888241291,
                -0.14126382768154144
            ],
            "min" : [
                0.05870052054524422,
                -0.004999999888241291,
                -0.18048898875713348
            ],
            "type" : "VEC3"
        },
        {
            "bufferView" : 13,
            "componentType" : 5126,
            "count" : 1078,
            "type" : "VEC3"
        },
        {
            "bufferView" : 14,
            "componentType" : 5126,
            "count" : 1078,
            "type" : "VEC2"
        },
        {
            "bufferView" : 15,
            "componentType" : 5123,
            "count" : 1860,
            "type" : "SCALAR"
        },
        {
            "bufferView" : 16,
            "componentType" : 5126,
            "count" : 900,
            "max" : [
                0.10464449226856232,
                0.004999999888241291,
                -0.14136016368865967
            ],
            "min" : [
                0.09489067643880844,
                -0.004999999888241291,
                -0.18022659420967102
            ],
            "type" : "VEC3"
        },
        {
            "bufferView" : 17,
            "componentType" : 5126,
            "count" : 900,
            "type" : "VEC3"
        },
        {
            "bufferView" : 18,
            "componentType" : 5126,
            "count" : 900,
            "type" : "VEC2"
        },
        {
            "bufferView" : 19,
            "componentType" : 5123,
            "count" : 1572,
            "type" : "SCALAR"
        },
        {
            "bufferView" : 20,
            "componentType" : 5126,
            "count" : 1146,
            "max" : [
                0.08659359067678452,
                0.004999999888241291,
                -0.14028078317642212
            ],
            "min" : [
                0.0767495408654213,
                -0.004999999888241291,
                -0.18020401895046234
            ],
            "type" : "VEC3"
        },
        {
            "bufferView" : 21,
            "componentType" : 5126,
            "count" : 1146,
            "type" : "VEC3"
        },
        {
            "bufferView" : 22,
            "componentType" : 5126,
            "count" : 1146,
            "type" : "VEC2"
        },
        {
            "bufferView" : 23,
            "componentType" : 5123,
            "count" : 2004,
            "type" : "SCALAR"
        },
        {
            "bufferView" : 24,
            "componentType" : 5126,
            "count" : 2028,
            "max" : [
                0.1013621836900711,
                0.004999999888241291,
                -0.06434568762779236
            ],
            "min" : [
                0.06239897385239601,
                -0.004999999888241291,
                -0.08980855345726013
            ],
            "type" : "VEC3"
        },
        {
            "bufferView" : 25,
            "componentType" : 5126,
            "count" : 2028,
            "type" : "VEC3"
        },
        {
            "bufferView" : 26,
            "componentType" : 5126,
            "count" : 2028,
            "type" : "VEC2"
        },
        {
            "bufferView" : 27,
            "componentType" : 5123,
            "count" : 3744,
            "type" : "SCALAR"
        },
        {
            "bufferView" : 28,
            "componentType" : 5126,
            "count" : 2206,
            "max" : [
                0.16174204647541046,
                0.004999999888241291,
                -0.0941329300403595
            ],
            "min" : [
                0.00533410906791687,
                -0.004999999888241291,
                -0.14215925335884094
            ],
            "type" : "VEC3"
        },
        {
            "bufferView" : 29,
            "componentType" : 5126,
            "count" : 2206,
            "type" : "VEC3"
        },
        {
            "bufferView" : 30,
            "componentType" : 5126,
            "count" : 2206,
            "type" : "VEC2"
        },
        {
            "bufferView" : 31,
            "componentType" : 5123,
            "count" : 4380,
            "type" : "SCALAR"
        },
        {
            "bufferView" : 32,
            "componentType" : 5126,
            "count" : 1984,
            "max" : [
                0.9999997019767761,
                1,
                0.9999994039535522
            ],
            "min" : [
                -0.9999990463256836,
                -1,
                -0.9999987483024597
            ],
            "type" : "VEC3"
        },
        {
            "bufferView" : 33,
            "componentType" : 5126,
            "count" : 1984,
            "type" : "VEC3"
        },
        {
            "bufferView" : 34,
            "componentType" : 5126,
            "count" : 1984,
            "type" : "VEC2"
        },
        {
            "bufferView" : 35,
            "componentType" : 5123,
            "count" : 2880,
            "type" : "SCALAR"
        }
    ],
    "bufferViews" : [
        {
            "buffer" : 0,
            "byteLength" : 2304,
            "byteOffset" : 0
        },
        {
            "buffer" : 0,
            "byteLength" : 2304,
            "byteOffset" : 2304
        },
        {
            "buffer" : 0,
            "byteLength" : 1536,
            "byteOffset" : 4608
        },
        {
            "buffer" : 0,
            "byteLength" : 744,
            "byteOffset" : 6144
        },
        {
            "buffer" : 0,
            "byteLength" : 534444,
            "byteOffset" : 6888
        },
        {
            "buffer" : 0,
            "byteLength" : 534444,
            "byteOffset" : 541332
        },
        {
            "buffer" : 0,
            "byteLength" : 356296,
            "byteOffset" : 1075776
        },
        {
            "buffer" : 0,
            "byteLength" : 189696,
            "byteOffset" : 1432072
        },
        {
            "buffer" : 0,
            "byteLength" : 6576,
            "byteOffset" : 1621768
        },
        {
            "buffer" : 0,
            "byteLength" : 6576,
            "byteOffset" : 1628344
        },
        {
            "buffer" : 0,
            "byteLength" : 4384,
            "byteOffset" : 1634920
        },
        {
            "buffer" : 0,
            "byteLength" : 1992,
            "byteOffset" : 1639304
        },
        {
            "buffer" : 0,
            "byteLength" : 12936,
            "byteOffset" : 1641296
        },
        {
            "buffer" : 0,
            "byteLength" : 12936,
            "byteOffset" : 1654232
        },
        {
            "buffer" : 0,
            "byteLength" : 8624,
            "byteOffset" : 1667168
        },
        {
            "buffer" : 0,
            "byteLength" : 3720,
            "byteOffset" : 1675792
        },
        {
            "buffer" : 0,
            "byteLength" : 10800,
            "byteOffset" : 1679512
        },
        {
            "buffer" : 0,
            "byteLength" : 10800,
            "byteOffset" : 1690312
        },
        {
            "buffer" : 0,
            "byteLength" : 7200,
            "byteOffset" : 1701112
        },
        {
            "buffer" : 0,
            "byteLength" : 3144,
            "byteOffset" : 1708312
        },
        {
            "buffer" : 0,
            "byteLength" : 13752,
            "byteOffset" : 1711456
        },
        {
            "buffer" : 0,
            "byteLength" : 13752,
            "byteOffset" : 1725208
        },
        {
            "buffer" : 0,
            "byteLength" : 9168,
            "byteOffset" : 1738960
        },
        {
            "buffer" : 0,
            "byteLength" : 4008,
            "byteOffset" : 1748128
        },
        {
            "buffer" : 0,
            "byteLength" : 24336,
            "byteOffset" : 1752136
        },
        {
            "buffer" : 0,
            "byteLength" : 24336,
            "byteOffset" : 1776472
        },
        {
            "buffer" : 0,
            "byteLength" : 16224,
            "byteOffset" : 1800808
        },
        {
            "buffer" : 0,
            "byteLength" : 7488,
            "byteOffset" : 1817032
        },
        {
            "buffer" : 0,
            "byteLength" : 26472,
            "byteOffset" : 1824520
        },
        {
            "buffer" : 0,
            "byteLength" : 26472,
            "byteOffset" : 1850992
        },
        {
            "buffer" : 0,
            "byteLength" : 17648,
            "byteOffset" : 1877464
        },
        {
            "buffer" : 0,
            "byteLength" : 8760,
            "byteOffset" : 1895112
        },
        {
            "buffer" : 0,
            "byteLength" : 23808,
            "byteOffset" : 1903872
        },
        {
            "buffer" : 0,
            "byteLength" : 23808,
            "byteOffset" : 1927680
        },
        {
            "buffer" : 0,
            "byteLength" : 15872,
            "byteOffset" : 1951488
        },
        {
            "buffer" : 0,
            "byteLength" : 5760,
            "byteOffset" : 1967360
        }
    ],
    "buffers" : [
        {
            "byteLength" : 1973120,
            "uri" : "rap.bin"
        }
    ]
}
